<svg width="444" height="60" viewBox="0 0 444 60" fill="none" xmlns="http://www.w3.org/2000/svg">
<path d="M17.384 42.28C17.384 45.8213 16.744 48.744 15.464 51.048C14.2267 53.352 12.5627 55.144 10.472 56.424C8.424 57.7467 5.97067 58.8773 3.112 59.816L0.296 52.392C2.17333 51.6667 3.58133 50.8347 4.52 49.896C5.45867 48.9573 6.07733 47.8693 6.376 46.632C6.71733 45.3947 6.888 43.816 6.888 41.896V4.648H17.384V42.28ZM54.9125 31.336C54.9125 32.744 54.8485 33.96 54.7205 34.984H33.6645C34.0058 37.8427 34.8165 39.848 36.0965 41C37.3765 42.152 39.1472 42.728 41.4085 42.728C42.7738 42.728 44.0965 42.4933 45.3765 42.024C46.6565 41.512 48.0432 40.744 49.5365 39.72L53.6965 45.352C49.7285 48.5093 45.3125 50.088 40.4485 50.088C34.9445 50.088 30.7205 48.4667 27.7765 45.224C24.8325 41.9813 23.3605 37.6293 23.3605 32.168C23.3605 28.712 23.9792 25.6187 25.2165 22.888C26.4538 20.1147 28.2672 17.9387 30.6565 16.36C33.0458 14.7387 35.9045 13.928 39.2325 13.928C44.1392 13.928 47.9792 15.464 50.7525 18.536C53.5258 21.608 54.9125 25.8747 54.9125 31.336ZM44.9925 28.456C44.9072 23.2507 43.0725 20.648 39.4885 20.648C37.7392 20.648 36.3738 21.288 35.3925 22.568C34.4538 23.848 33.8778 25.96 33.6645 28.904H44.9925V28.456ZM76.145 7.912C74.6943 7.912 73.649 8.25333 73.009 8.936C72.369 9.61867 72.049 10.7707 72.049 12.392V15.016H80.049L78.961 22.056H72.049V49H61.937V22.056H56.817V15.016H61.937V12.008C61.937 8.59466 63.0463 5.82133 65.265 3.688C67.5263 1.512 70.7477 0.423996 74.929 0.423996C78.2997 0.423996 81.393 1.14933 84.209 2.6L81.457 9.192C79.7503 8.33867 77.9797 7.912 76.145 7.912ZM98.9575 7.912C97.5068 7.912 96.4615 8.25333 95.8215 8.936C95.1815 9.61867 94.8615 10.7707 94.8615 12.392V15.016H102.862L101.774 22.056H94.8615V49H84.7495V22.056H79.6295V15.016H84.7495V12.008C84.7495 8.59466 85.8588 5.82133 88.0775 3.688C90.3388 1.512 93.5602 0.423996 97.7415 0.423996C101.112 0.423996 104.206 1.14933 107.022 2.6L104.27 9.192C102.563 8.33867 100.792 7.912 98.9575 7.912ZM135.225 31.336C135.225 32.744 135.161 33.96 135.033 34.984H113.977C114.318 37.8427 115.129 39.848 116.409 41C117.689 42.152 119.46 42.728 121.721 42.728C123.086 42.728 124.409 42.4933 125.689 42.024C126.969 41.512 128.356 40.744 129.849 39.72L134.009 45.352C130.041 48.5093 125.625 50.088 120.761 50.088C115.257 50.088 111.033 48.4667 108.089 45.224C105.145 41.9813 103.673 37.6293 103.673 32.168C103.673 28.712 104.292 25.6187 105.529 22.888C106.766 20.1147 108.58 17.9387 110.969 16.36C113.358 14.7387 116.217 13.928 119.545 13.928C124.452 13.928 128.292 15.464 131.065 18.536C133.838 21.608 135.225 25.8747 135.225 31.336ZM125.305 28.456C125.22 23.2507 123.385 20.648 119.801 20.648C118.052 20.648 116.686 21.288 115.705 22.568C114.766 23.848 114.19 25.96 113.977 28.904H125.305V28.456ZM159.338 14.056C160.575 14.056 161.706 14.2053 162.73 14.504L161.13 24.296C159.85 23.9973 158.826 23.848 158.058 23.848C156.052 23.848 154.516 24.552 153.45 25.96C152.426 27.3253 151.615 29.3947 151.018 32.168V49H140.906V15.016H149.738L150.57 21.608C151.338 19.2613 152.49 17.4267 154.026 16.104C155.604 14.7387 157.375 14.056 159.338 14.056ZM177.811 13.928C180.243 13.928 182.526 14.2907 184.659 15.016C186.792 15.7413 188.67 16.7653 190.291 18.088L186.579 23.784C183.806 22.0347 181.011 21.16 178.195 21.16C176.872 21.16 175.848 21.3947 175.123 21.864C174.44 22.2907 174.099 22.9093 174.099 23.72C174.099 24.36 174.248 24.8933 174.547 25.32C174.888 25.704 175.55 26.1093 176.531 26.536C177.512 26.9627 179.027 27.4747 181.075 28.072C184.616 29.096 187.24 30.44 188.947 32.104C190.696 33.7253 191.571 35.9867 191.571 38.888C191.571 41.192 190.91 43.1973 189.587 44.904C188.264 46.568 186.451 47.848 184.147 48.744C181.843 49.64 179.283 50.088 176.467 50.088C173.608 50.088 170.942 49.64 168.467 48.744C166.035 47.848 163.966 46.6107 162.259 45.032L167.187 39.528C170.046 41.7467 173.054 42.856 176.211 42.856C177.747 42.856 178.942 42.5787 179.795 42.024C180.691 41.4693 181.139 40.68 181.139 39.656C181.139 38.8453 180.968 38.2053 180.627 37.736C180.286 37.2667 179.624 36.84 178.643 36.456C177.662 36.0293 176.104 35.5173 173.971 34.92C170.6 33.9387 168.083 32.5733 166.419 30.824C164.755 29.0747 163.923 26.8987 163.923 24.296C163.923 22.3333 164.478 20.584 165.587 19.048C166.739 17.4693 168.36 16.232 170.451 15.336C172.584 14.3973 175.038 13.928 177.811 13.928ZM211.501 13.928C216.706 13.928 220.781 15.528 223.725 18.728C226.669 21.8853 228.141 26.3227 228.141 32.04C228.141 35.6667 227.458 38.8453 226.093 41.576C224.77 44.264 222.85 46.3547 220.333 47.848C217.858 49.3413 214.914 50.088 211.501 50.088C206.338 50.088 202.263 48.5093 199.277 45.352C196.333 42.152 194.861 37.6933 194.861 31.976C194.861 28.3493 195.522 25.192 196.845 22.504C198.21 19.7733 200.13 17.6613 202.605 16.168C205.122 14.6747 208.087 13.928 211.501 13.928ZM211.501 21.352C209.453 21.352 207.917 22.2267 206.893 23.976C205.869 25.6827 205.357 28.3493 205.357 31.976C205.357 35.688 205.847 38.3973 206.829 40.104C207.853 41.8107 209.41 42.664 211.501 42.664C213.549 42.664 215.085 41.8107 216.109 40.104C217.133 38.3547 217.645 35.6667 217.645 32.04C217.645 28.328 217.133 25.6187 216.109 23.912C215.127 22.2053 213.591 21.352 211.501 21.352ZM254.06 13.928C257.004 13.928 259.308 14.824 260.972 16.616C262.636 18.408 263.468 20.9253 263.468 24.168V49H253.356V25.896C253.356 24.1893 253.078 23.016 252.524 22.376C252.012 21.6933 251.222 21.352 250.156 21.352C248.108 21.352 246.145 22.824 244.268 25.768V49H234.156V15.016H242.988L243.692 19.048C245.142 17.3413 246.7 16.0613 248.364 15.208C250.07 14.3547 251.969 13.928 254.06 13.928ZM304.585 3.56C307.358 3.56 309.811 3.96533 311.945 4.776C314.121 5.58666 316.169 6.80266 318.089 8.424L313.097 14.376C311.774 13.352 310.473 12.584 309.193 12.072C307.913 11.56 306.547 11.304 305.097 11.304C302.11 11.304 299.742 12.5627 297.993 15.08C296.286 17.5973 295.433 21.48 295.433 26.728C295.433 31.8907 296.286 35.7307 297.993 38.248C299.742 40.7227 302.153 41.96 305.225 41.96C306.846 41.96 308.318 41.6613 309.641 41.064C310.963 40.424 312.393 39.528 313.929 38.376L318.601 44.392C316.937 46.056 314.91 47.4213 312.521 48.488C310.174 49.5547 307.571 50.088 304.713 50.088C300.617 50.088 297.054 49.192 294.025 47.4C290.995 45.608 288.627 42.9627 286.921 39.464C285.257 35.9227 284.424 31.6773 284.424 26.728C284.424 21.9067 285.278 17.7467 286.985 14.248C288.734 10.7493 291.123 8.104 294.153 6.312C297.225 4.47733 300.702 3.56 304.585 3.56ZM336.563 13.928C341.768 13.928 345.843 15.528 348.787 18.728C351.731 21.8853 353.203 26.3227 353.203 32.04C353.203 35.6667 352.52 38.8453 351.155 41.576C349.832 44.264 347.912 46.3547 345.395 47.848C342.92 49.3413 339.976 50.088 336.563 50.088C331.4 50.088 327.326 48.5093 324.339 45.352C321.395 42.152 319.923 37.6933 319.923 31.976C319.923 28.3493 320.584 25.192 321.907 22.504C323.272 19.7733 325.192 17.6613 327.667 16.168C330.184 14.6747 333.15 13.928 336.563 13.928ZM336.563 21.352C334.515 21.352 332.979 22.2267 331.955 23.976C330.931 25.6827 330.419 28.3493 330.419 31.976C330.419 35.688 330.91 38.3973 331.891 40.104C332.915 41.8107 334.472 42.664 336.563 42.664C338.611 42.664 340.147 41.8107 341.171 40.104C342.195 38.3547 342.707 35.6667 342.707 32.04C342.707 28.328 342.195 25.6187 341.171 23.912C340.19 22.2053 338.654 21.352 336.563 21.352ZM371.186 13.928C373.618 13.928 375.901 14.2907 378.034 15.016C380.167 15.7413 382.045 16.7653 383.666 18.088L379.954 23.784C377.181 22.0347 374.386 21.16 371.57 21.16C370.247 21.16 369.223 21.3947 368.498 21.864C367.815 22.2907 367.474 22.9093 367.474 23.72C367.474 24.36 367.623 24.8933 367.922 25.32C368.263 25.704 368.925 26.1093 369.906 26.536C370.887 26.9627 372.402 27.4747 374.45 28.072C377.991 29.096 380.615 30.44 382.322 32.104C384.071 33.7253 384.946 35.9867 384.946 38.888C384.946 41.192 384.285 43.1973 382.962 44.904C381.639 46.568 379.826 47.848 377.522 48.744C375.218 49.64 372.658 50.088 369.842 50.088C366.983 50.088 364.317 49.64 361.842 48.744C359.41 47.848 357.341 46.6107 355.634 45.032L360.562 39.528C363.421 41.7467 366.429 42.856 369.586 42.856C371.122 42.856 372.317 42.5787 373.17 42.024C374.066 41.4693 374.514 40.68 374.514 39.656C374.514 38.8453 374.343 38.2053 374.002 37.736C373.661 37.2667 372.999 36.84 372.018 36.456C371.037 36.0293 369.479 35.5173 367.346 34.92C363.975 33.9387 361.458 32.5733 359.794 30.824C358.13 29.0747 357.298 26.8987 357.298 24.296C357.298 22.3333 357.853 20.584 358.962 19.048C360.114 17.4693 361.735 16.232 363.826 15.336C365.959 14.3973 368.413 13.928 371.186 13.928ZM411.468 47.4C410.23 48.2533 408.78 48.9147 407.116 49.384C405.494 49.8533 403.873 50.088 402.252 50.088C394.828 50.0453 391.116 45.9493 391.116 37.8V22.056H386.316V15.016H391.116V7.656L401.228 6.504V15.016H409.036L407.948 22.056H401.228V37.672C401.228 39.2507 401.484 40.3813 401.996 41.064C402.508 41.7467 403.318 42.088 404.428 42.088C405.58 42.088 406.796 41.7253 408.076 41L411.468 47.4ZM441.101 39.144C441.101 40.424 441.272 41.3627 441.613 41.96C441.997 42.5573 442.594 43.0053 443.405 43.304L441.293 49.896C439.202 49.7253 437.496 49.2773 436.173 48.552C434.85 47.784 433.826 46.5893 433.101 44.968C430.882 48.3813 427.469 50.088 422.861 50.088C419.49 50.088 416.802 49.1067 414.797 47.144C412.792 45.1813 411.789 42.6213 411.789 39.464C411.789 35.752 413.154 32.9147 415.885 30.952C418.616 28.9893 422.562 28.008 427.725 28.008H431.181V26.536C431.181 24.5307 430.754 23.1653 429.901 22.44C429.048 21.672 427.554 21.288 425.421 21.288C424.312 21.288 422.968 21.4587 421.389 21.8C419.81 22.0987 418.189 22.5253 416.525 23.08L414.221 16.424C416.354 15.6133 418.53 14.9947 420.749 14.568C423.01 14.1413 425.101 13.928 427.021 13.928C431.885 13.928 435.448 14.9307 437.709 16.936C439.97 18.9413 441.101 21.9493 441.101 25.96V39.144ZM425.805 42.856C428.109 42.856 429.901 41.768 431.181 39.592V33.576H428.685C426.381 33.576 424.653 33.9813 423.501 34.792C422.392 35.6027 421.837 36.8613 421.837 38.568C421.837 39.9333 422.178 41 422.861 41.768C423.586 42.4933 424.568 42.856 425.805 42.856Z" fill="black"/>
</svg>
